<svg width="17" height="16" viewBox="0 0 17 16" fill="none" xmlns="http://www.w3.org/2000/svg">
<path d="M10.95 1.14403C12.635 0.648028 13.934 1.41403 14.527 2.32303C15.2 2.09203 15.858 1.84203 16.538 1.61503C16.5249 2.30139 16.2117 2.94755 15.681 3.38303C16.366 3.55303 16.985 2.89203 16.985 2.89203C16.816 3.89203 15.979 4.68003 15.422 4.91603C15.191 11.666 12.247 16.133 5.34498 15.998H4.89898C4.48898 15.998 0.734977 15.538 0.000976562 14.111C2.27198 14.307 3.89398 13.689 4.69398 12.934C3.73398 12.634 2.01498 12.457 1.71498 9.98403C2.06398 10.09 2.27898 10.212 2.90498 10.103C1.70498 9.24703 0.373977 8.53003 0.447977 6.33003C0.732977 6.65803 1.51498 6.86603 1.78798 6.80203C1.08498 6.56103 -0.182023 3.44203 0.893977 1.85003C2.71198 3.70403 4.62898 5.45603 8.04598 5.62303C8.25398 3.33003 9.18298 1.79303 10.95 1.14403Z" fill="white"/>
</svg>
